<svg id="visual" viewBox="0 0 900 600" width="900" height="600" xmlns="http://www.w3.org/2000/svg" xmlns:xlink="http://www.w3.org/1999/xlink" version="1.1"><path d="M0 153L6.5 145.5C13 138 26 123 39 122.5C52 122 65 136 78 128C91 120 104 90 117.2 86.3C130.3 82.7 143.7 105.3 156.8 117C170 128.7 183 129.3 196 129.7C209 130 222 130 235 121.5C248 113 261 96 274 97.2C287 98.3 300 117.7 313 133C326 148.3 339 159.7 352 160.2C365 160.7 378 150.3 391 152.2C404 154 417 168 430.2 167C443.3 166 456.7 150 469.8 139C483 128 496 122 509 127C522 132 535 148 548 136.8C561 125.7 574 87.3 587 73.2C600 59 613 69 626 71.2C639 73.3 652 67.7 665 63.3C678 59 691 56 704 68.3C717 80.7 730 108.3 743.2 118C756.3 127.7 769.7 119.3 782.8 118C796 116.7 809 122.3 822 132.5C835 142.7 848 157.3 861 155.3C874 153.3 887 134.7 893.5 125.3L900 116L900 0L893.5 0C887 0 874 0 861 0C848 0 835 0 822 0C809 0 796 0 782.8 0C769.7 0 756.3 0 743.2 0C730 0 717 0 704 0C691 0 678 0 665 0C652 0 639 0 626 0C613 0 600 0 587 0C574 0 561 0 548 0C535 0 522 0 509 0C496 0 483 0 469.8 0C456.7 0 443.3 0 430.2 0C417 0 404 0 391 0C378 0 365 0 352 0C339 0 326 0 313 0C300 0 287 0 274 0C261 0 248 0 235 0C222 0 209 0 196 0C183 0 170 0 156.8 0C143.7 0 130.3 0 117.2 0C104 0 91 0 78 0C65 0 52 0 39 0C26 0 13 0 6.5 0L0 0Z" fill="#FF0066" stroke-linecap="round" stroke-linejoin="miter"></path></svg>