<svg id="visual" viewBox="0 0 900 600" width="900" height="600" xmlns="http://www.w3.org/2000/svg" xmlns:xlink="http://www.w3.org/1999/xlink" version="1.1"><path d="M0 109L11.5 119.8C23 130.7 46 152.3 69 180.3C92 208.3 115 242.7 138.2 244.7C161.3 246.7 184.7 216.3 207.8 199.8C231 183.3 254 180.7 277 189C300 197.3 323 216.7 346 217.5C369 218.3 392 200.7 415.2 204.2C438.3 207.7 461.7 232.3 484.8 227.3C508 222.3 531 187.7 554 168.5C577 149.3 600 145.7 623 147.8C646 150 669 158 692.2 173C715.3 188 738.7 210 761.8 205.2C785 200.3 808 168.7 831 172.8C854 177 877 217 888.5 237L900 257L900 0L888.5 0C877 0 854 0 831 0C808 0 785 0 761.8 0C738.7 0 715.3 0 692.2 0C669 0 646 0 623 0C600 0 577 0 554 0C531 0 508 0 484.8 0C461.7 0 438.3 0 415.2 0C392 0 369 0 346 0C323 0 300 0 277 0C254 0 231 0 207.8 0C184.7 0 161.3 0 138.2 0C115 0 92 0 69 0C46 0 23 0 11.5 0L0 0Z" fill="#0066FF" stroke-linecap="round" stroke-linejoin="miter"></path></svg>